{"title":"Star Crossed S01E03 HDTV x264 AAC [GWC].mp4","uid":9695590,"size":157766248,"categoryP":"video","categoryS":"tv_shows","magnet":"?xt=urn:btih:a8fef02c28261b9b483a4aa6e7fcc04d9f001aea&amp;dn=Star+Crossed+S01E03+HDTV+x264+AAC+%5BGWC%5D.mp4&amp;tr=udp%3A%2F%2Ftracker.openbittorrent.com%3A80&amp;tr=udp%3A%2F%2Fopen.demonii.com%3A1337&amp;tr=udp%3A%2F%2Ftracker.coppersurfer.tk%3A6969&amp;tr=udp%3A%2F%2Fexodus.desync.com%3A6969","seeders":1,"leechers":0,"uploader":"canc232","files":1,"time":1393929906,"description":"Star Crossed S01E03 HDTV x264 AAC [GWC]\n\n\nSTORYLINE :\nAbout an epic romance between a human girl and an alien boy when he and eight others of his kind are integrated into a suburban high school 10 years after they landed on Earth and were consigned to an internment camp.\n\n\nSCREENS : &lt;a href=&quot;\nhttp://i.imgur.com/WtZcvVs.jpg&quot; rel=&quot;nofollow&quot; target=&quot;_NEW&quot;&gt;\nhttp://i.imgur.com/WtZcvVs.jpg&lt;/a&gt; &lt;a href=&quot;\nhttp://i.imgur.com/BctjeHf.jpg&quot; rel=&quot;nofollow&quot; target=&quot;_NEW&quot;&gt;\nhttp://i.imgur.com/BctjeHf.jpg&lt;/a&gt; &lt;a href=&quot;\nhttp://i.imgur.com/9KV0hlx.jpg&quot; rel=&quot;nofollow&quot; target=&quot;_NEW&quot;&gt;\nhttp://i.imgur.com/9KV0hlx.jpg&lt;/a&gt;\n\n\nMEDIA INFO :\nGeneral \nFormat : MPEG-4 \nFormat profile : Base Media \nFile size : 150 MiB \nDuration : 41mn 48s \nOverall bit rate mode : Variable \nOverall bit rate : 503 Kbps \n\nVideo \nFormat : AVC \nFormat profile : &lt;a class=&quot;__cf_email__&quot; href=&quot;/cdn-cgi/l/email-protection&quot; data-cfemail=&quot;9ed6f7f9f6ded2adb0ae&quot;&gt;[email&amp;#160;protected]&lt;/a&gt;&lt;script cf-hash='f9e31' type=&quot;text/javascript&quot;&gt;\n/* &lt;![CDATA[ */!function(){try{var t=&quot;currentScript&quot;in document?document.currentScript:function(){for(var t=document.getElementsByTagName(&quot;script&quot;),e=t.length;e--;)if(t[e].getAttribute(&quot;cf-hash&quot;))return t[e]}();if(t&amp;&amp;t.previousSibling){var e,r,n,i,c=t.previousSibling,a=c.getAttribute(&quot;data-cfemail&quot;);if(a){for(e=&quot;&quot;,r=parseInt(a.substr(0,2),16),n=2;a.length-n;n+=2)i=parseInt(a.substr(n,2),16)^r,e+=String.fromCharCode(i);e=document.createTextNode(e),c.parentNode.replaceChild(e,c)}}}catch(u){}}();/* ]]&gt; */&lt;/script&gt; \nFormat settings, CABAC : Yes \nFormat settings, ReFrames : 4 frames \nDuration : 41mn 47s \nBit rate : 440 Kbps \nMaximum bit rate : 2 508 Kbps \nWidth : 720 pixels \nHeight : 404 pixels \nDisplay aspect ratio : 16:9 \nFrame rate mode : Constant \nFrame rate : 23.976 fps \nStream size : 132 MiB (87%) \nTitle : Star Crossed S01E03 HDTV x264 AAC [GWC] \nWriting library : x264 core\n\nAudio \nFormat : AAC \nFormat profile : HE-AAC / LC \nDuration : 41mn 48s \nBit rate mode : Variable \nChannel(s) : 2 channels \nSampling rate : 48.0 KHz / 24.0 KHz \nStream size : 17.9 MiB (12%) \nLanguage : English ","torrent":{"xt":"urn:btih:a8fef02c28261b9b483a4aa6e7fcc04d9f001aea","amp;dn":"Star+Crossed+S01E03+HDTV+x264+AAC+%5BGWC%5D.mp4","amp;tr":["udp%3A%2F%2Ftracker.openbittorrent.com%3A80","udp%3A%2F%2Fopen.demonii.com%3A1337","udp%3A%2F%2Ftracker.coppersurfer.tk%3A6969","udp%3A%2F%2Fexodus.desync.com%3A6969"],"infoHash":"a8fef02c28261b9b483a4aa6e7fcc04d9f001aea","infoHashBuffer":{"type":"Buffer","data":[168,254,240,44,40,38,27,155,72,58,74,166,231,252,192,77,159,0,26,234]},"announce":[],"urlList":[]}}